<?xml version="1.0" encoding="UTF-8" standalone="no"?>
<!DOCTYPE svg PUBLIC "-//W3C//DTD SVG 1.1//EN" "http://www.w3.org/Graphics/SVG/1.1/DTD/svg11.dtd">
<svg width="100%" height="100%" viewBox="0 0 181 89" version="1.1" xmlns="http://www.w3.org/2000/svg" xmlns:xlink="http://www.w3.org/1999/xlink" xml:space="preserve" xmlns:serif="http://www.serif.com/" style="fill-rule:evenodd;clip-rule:evenodd;stroke-linejoin:round;stroke-miterlimit:2;">
    <g transform="matrix(1,0,0,1,-735.643,-454.191)">
        <g transform="matrix(6.32357,0,0,6.32357,-3734.77,-2027.95)">
            <g>
                <g transform="matrix(1,0,0,1,0.316277,-0.790693)">
                    <path d="M709.676,397.368L710.156,397.356C710.38,397.356 710.492,397.476 710.492,397.716C710.492,398.036 710.38,398.282 710.156,398.454C709.932,398.626 709.652,398.724 709.316,398.748C709.196,398.748 709.086,398.778 708.986,398.838C708.886,398.898 708.832,398.964 708.824,399.036C708.768,399.62 708.74,400.3 708.74,401.076C708.74,401.852 708.78,402.616 708.86,403.368C708.884,403.448 708.896,403.538 708.896,403.638C708.896,403.738 708.872,403.836 708.824,403.932C708.672,404.204 708.448,404.424 708.152,404.592C707.752,404.808 707.398,404.916 707.09,404.916C706.782,404.916 706.628,404.804 706.628,404.58L706.676,404.34C706.988,403.06 707.144,401.36 707.144,399.24L707.144,399.096C707.144,399.048 707.124,399.024 707.084,399.024C706.78,399.024 706.628,398.888 706.628,398.616C706.628,398.456 706.696,398.23 706.832,397.938C706.968,397.646 707.112,397.48 707.264,397.44C707.272,397.336 707.276,397.208 707.276,397.056C707.276,396.32 707.156,395.856 706.916,395.664C706.836,395.568 706.796,395.448 706.796,395.304C706.796,395.048 706.964,394.82 707.3,394.62C707.94,394.276 710.428,393.313 711.284,393.313C711.492,393.313 711.662,393.321 711.794,393.337C711.926,393.353 712.056,393.407 712.184,393.499C712.312,393.591 712.376,393.725 712.376,393.901C712.376,394.197 712.16,394.409 711.728,394.537C711.296,394.665 709.264,395.632 709.112,395.856C708.96,396.08 708.884,396.392 708.884,396.792C708.884,396.88 708.892,397.012 708.908,397.188C708.916,397.308 709.172,397.368 709.676,397.368Z" style="fill-rule:nonzero;"/>
                </g>
                <path d="M712.82,395.046C712.82,395.518 712.794,396.128 712.742,396.876C712.69,397.624 712.664,398.422 712.664,399.27C712.664,400.118 712.674,400.35 712.694,400.914C712.714,401.478 712.852,401.852 713.108,402.036C713.244,402.116 713.312,402.24 713.312,402.408C713.312,402.576 713.208,402.732 713,402.876C712.616,403.14 712.184,403.272 711.704,403.272C711.376,403.272 711.172,403.136 711.092,402.864C711.068,402.752 711.056,402.618 711.056,402.462C711.056,402.306 711.062,402.128 711.074,401.928C711.086,401.728 711.1,401.468 711.116,401.148C711.188,399.708 711.224,399.044 711.224,398.208C711.224,397.372 711.212,396.866 711.188,396.69C711.156,396.402 711.056,396.198 710.888,396.078L710.804,396.018C710.7,395.946 710.648,395.85 710.648,395.73C710.648,395.466 710.874,395.214 711.326,394.974C711.778,394.734 712.132,394.614 712.388,394.614C712.676,394.614 712.82,394.758 712.82,395.046Z" style="fill-rule:nonzero;"/>
                <path d="M713.864,399.132C713.864,399.004 713.834,398.884 713.774,398.772C713.714,398.66 713.636,398.56 713.54,398.472C713.444,398.384 713.396,398.288 713.396,398.184C713.396,397.912 713.604,397.67 714.02,397.458C714.436,397.246 714.786,397.14 715.07,397.14C715.354,397.14 715.5,397.284 715.508,397.572C715.508,397.772 715.49,398.13 715.454,398.646C715.418,399.162 715.4,399.64 715.4,400.08C715.4,401.144 715.496,401.812 715.688,402.084C715.8,402.148 715.856,402.248 715.856,402.384C715.856,402.648 715.71,402.856 715.418,403.008C715.126,403.16 714.796,403.236 714.428,403.236C713.94,403.236 713.696,403.072 713.696,402.744C713.696,402.728 713.708,402.636 713.732,402.468C713.844,401.828 713.9,401.112 713.9,400.32L713.864,399.132ZM715.628,395.316C715.628,395.612 715.486,395.85 715.202,396.03C714.918,396.21 714.644,396.3 714.38,396.3C714.116,396.3 713.91,396.25 713.762,396.15C713.614,396.05 713.54,395.916 713.54,395.748C713.54,395.444 713.684,395.198 713.972,395.01C714.26,394.822 714.534,394.728 714.794,394.728C715.054,394.728 715.258,394.78 715.406,394.884C715.554,394.988 715.628,395.132 715.628,395.316Z" style="fill-rule:nonzero;"/>
                <path d="M717.632,397.044C717.896,397.044 718.028,397.28 718.028,397.752C718.052,397.8 718.078,397.824 718.106,397.824C718.134,397.824 718.164,397.802 718.196,397.758C718.228,397.714 718.27,397.662 718.322,397.602C718.374,397.542 718.486,397.464 718.658,397.368C718.83,397.272 719.044,397.224 719.3,397.224C719.556,397.224 719.804,397.31 720.044,397.482C720.284,397.654 720.468,397.888 720.596,398.184C720.836,398.736 720.956,399.408 720.956,400.2C720.956,400.448 720.91,400.772 720.818,401.172C720.726,401.572 720.616,401.906 720.488,402.174C720.36,402.442 720.164,402.68 719.9,402.888C719.636,403.096 719.328,403.2 718.976,403.2C718.784,403.2 718.612,403.168 718.46,403.104C718.308,403.04 718.204,402.976 718.148,402.912L718.052,402.828C718.028,402.804 718.004,402.792 717.98,402.792C717.94,402.792 717.912,402.828 717.896,402.9C717.872,403.3 717.86,403.694 717.86,404.082C717.86,404.47 717.87,404.778 717.89,405.006C717.91,405.234 717.92,405.376 717.92,405.432C717.92,405.696 717.828,405.9 717.644,406.044C717.22,406.404 716.704,406.584 716.096,406.584C715.856,406.584 715.736,406.468 715.736,406.236L715.772,406.02C715.988,405.404 716.15,404.708 716.258,403.932C716.366,403.156 716.43,402.486 716.45,401.922C716.47,401.358 716.48,400.794 716.48,400.23C716.48,399.666 716.476,399.296 716.468,399.12C716.444,398.824 716.34,398.624 716.156,398.52L716.072,398.46C715.968,398.364 715.916,398.268 715.916,398.172C715.916,397.9 716.126,397.644 716.546,397.404C716.966,397.164 717.328,397.044 717.632,397.044ZM718.016,399.852C718.016,400.196 718.086,400.498 718.226,400.758C718.366,401.018 718.532,401.148 718.724,401.148C718.916,401.148 719.076,401.042 719.204,400.83C719.332,400.618 719.396,400.338 719.396,399.99C719.396,399.642 719.324,399.338 719.18,399.078C719.036,398.818 718.868,398.688 718.676,398.688C718.484,398.688 718.326,398.796 718.202,399.012C718.078,399.228 718.016,399.508 718.016,399.852Z" style="fill-rule:nonzero;"/>
                <path d="M723.236,394.32L723.236,393.72C723.236,393.608 723.288,393.524 723.392,393.468C723.496,393.412 723.604,393.384 723.716,393.384C723.828,393.384 723.91,393.408 723.962,393.456C724.014,393.504 724.048,393.572 724.064,393.66L724.064,394.164L724.232,394.164C724.992,394.164 725.372,394.504 725.372,395.184C725.372,395.632 725.256,395.856 725.024,395.856C724.944,395.856 724.836,395.826 724.7,395.766C724.564,395.706 724.416,395.676 724.256,395.676C724.096,395.676 723.96,395.744 723.848,395.88C723.736,396.016 723.68,396.196 723.68,396.42C723.68,396.644 723.79,396.906 724.01,397.206C724.23,397.506 724.47,397.786 724.73,398.046C724.99,398.306 725.23,398.666 725.45,399.126C725.67,399.586 725.78,400.06 725.78,400.548C725.78,401.036 725.722,401.448 725.606,401.784C725.49,402.12 725.332,402.384 725.132,402.576C724.78,402.92 724.392,403.148 723.968,403.26L723.968,403.908C723.96,404.02 723.898,404.104 723.782,404.16C723.666,404.216 723.544,404.244 723.416,404.244C723.232,404.244 723.14,404.156 723.14,403.98L723.14,403.344C722.5,403.304 721.998,403.088 721.634,402.696C721.27,402.304 721.088,401.788 721.088,401.148C721.088,400.804 721.176,400.464 721.352,400.128C721.528,399.792 721.76,399.624 722.048,399.624C722.152,399.624 722.232,399.66 722.288,399.732C722.344,399.804 722.38,399.928 722.396,400.104C722.412,400.28 722.448,400.45 722.504,400.614C722.56,400.778 722.62,400.898 722.684,400.974C722.748,401.05 722.82,401.112 722.9,401.16C723.012,401.216 723.108,401.244 723.188,401.244C723.38,401.244 723.536,401.166 723.656,401.01C723.776,400.854 723.836,400.658 723.836,400.422C723.836,400.186 723.72,399.892 723.488,399.54C723.256,399.188 723.004,398.86 722.732,398.556C722.46,398.252 722.208,397.906 721.976,397.518C721.744,397.13 721.628,396.734 721.628,396.33C721.628,395.926 721.77,395.532 722.054,395.148C722.338,394.764 722.732,394.488 723.236,394.32Z" style="fill-rule:nonzero;"/>
                <path d="M726.452,399.132C726.452,399.004 726.422,398.884 726.362,398.772C726.302,398.66 726.224,398.56 726.128,398.472C726.032,398.384 725.984,398.288 725.984,398.184C725.984,397.912 726.192,397.67 726.608,397.458C727.024,397.246 727.374,397.14 727.658,397.14C727.942,397.14 728.088,397.284 728.096,397.572C728.096,397.772 728.078,398.13 728.042,398.646C728.006,399.162 727.988,399.64 727.988,400.08C727.988,401.144 728.084,401.812 728.276,402.084C728.388,402.148 728.444,402.248 728.444,402.384C728.444,402.648 728.298,402.856 728.006,403.008C727.714,403.16 727.384,403.236 727.016,403.236C726.528,403.236 726.284,403.072 726.284,402.744C726.284,402.728 726.296,402.636 726.32,402.468C726.432,401.828 726.488,401.112 726.488,400.32L726.452,399.132ZM728.216,395.316C728.216,395.612 728.074,395.85 727.79,396.03C727.506,396.21 727.232,396.3 726.968,396.3C726.704,396.3 726.498,396.25 726.35,396.15C726.202,396.05 726.128,395.916 726.128,395.748C726.128,395.444 726.272,395.198 726.56,395.01C726.848,394.822 727.122,394.728 727.382,394.728C727.642,394.728 727.846,394.78 727.994,394.884C728.142,394.988 728.216,395.132 728.216,395.316Z" style="fill-rule:nonzero;"/>
                <path d="M730.472,395.46L730.448,396.036C730.448,396.244 730.494,396.36 730.586,396.384C730.678,396.408 730.768,396.42 730.856,396.42C730.944,396.42 731.076,396.412 731.252,396.396C731.42,396.396 731.504,396.504 731.504,396.72C731.504,397.128 731.212,397.444 730.628,397.668C730.548,397.7 730.492,397.772 730.46,397.884C730.412,398.372 730.388,398.944 730.388,399.6C730.388,400.256 730.412,400.688 730.46,400.896C730.5,401.088 730.644,401.204 730.892,401.244C730.948,401.244 731,401.272 731.048,401.328C731.136,401.432 731.18,401.534 731.18,401.634C731.18,401.734 731.172,401.83 731.156,401.922C731.14,402.014 731.102,402.142 731.042,402.306C730.982,402.47 730.906,402.622 730.814,402.762C730.722,402.902 730.584,403.024 730.4,403.128C730.216,403.232 730.008,403.284 729.776,403.284C729.376,403.284 729.088,403.048 728.912,402.576C728.848,402.392 728.816,402.172 728.816,401.916L728.912,398.688C728.912,398.296 728.89,397.976 728.846,397.728C728.802,397.48 728.648,397.248 728.384,397.032C728.272,396.952 728.216,396.84 728.216,396.696C728.216,396.552 728.288,396.408 728.432,396.264C728.872,395.992 729.276,395.564 729.644,394.98C729.756,394.828 729.896,394.752 730.064,394.752C730.336,394.752 730.472,394.988 730.472,395.46Z" style="fill-rule:nonzero;"/>
                <path d="M733.016,399.456C733.016,399.504 733.032,399.544 733.064,399.576C733.096,399.616 733.136,399.636 733.184,399.636C733.64,399.596 733.944,399.38 734.096,398.988C734.136,398.9 734.164,398.796 734.18,398.676C734.172,398.396 734.06,398.256 733.844,398.256C733.596,398.256 733.406,398.376 733.274,398.616C733.142,398.856 733.056,399.136 733.016,399.456ZM733.838,397.152C734.37,397.152 734.786,397.288 735.086,397.56C735.386,397.832 735.536,398.244 735.536,398.796C735.536,399.348 735.318,399.804 734.882,400.164C734.446,400.524 733.896,400.704 733.232,400.704C733.136,400.704 733.088,400.752 733.088,400.848C733.088,401.04 733.158,401.206 733.298,401.346C733.438,401.486 733.63,401.556 733.874,401.556C734.118,401.556 734.338,401.444 734.534,401.22C734.73,400.996 734.902,400.884 735.05,400.884C735.198,400.884 735.316,400.948 735.404,401.076C735.492,401.204 735.536,401.386 735.536,401.622C735.536,401.858 735.478,402.094 735.362,402.33C735.246,402.566 735.108,402.744 734.948,402.864C734.788,402.984 734.608,403.08 734.408,403.152C734.112,403.264 733.798,403.32 733.466,403.32C733.134,403.32 732.824,403.24 732.536,403.08C732.248,402.92 732.024,402.704 731.864,402.432C731.552,401.888 731.396,401.286 731.396,400.626C731.396,399.966 731.476,399.392 731.636,398.904C731.796,398.416 732.07,398.002 732.458,397.662C732.846,397.322 733.306,397.152 733.838,397.152Z" style="fill-rule:nonzero;"/>
            </g>
        </g>
    </g>
</svg>
