<?xml version="1.0" encoding="UTF-8" standalone="no"?>
<!DOCTYPE svg PUBLIC "-//W3C//DTD SVG 1.1//EN" "http://www.w3.org/Graphics/SVG/1.1/DTD/svg11.dtd">
<svg width="100%" height="100%" viewBox="0 0 56 74" version="1.1" xmlns="http://www.w3.org/2000/svg" xmlns:xlink="http://www.w3.org/1999/xlink" xml:space="preserve" xmlns:serif="http://www.serif.com/" style="fill-rule:evenodd;clip-rule:evenodd;stroke-linejoin:round;stroke-miterlimit:2;">
    <g transform="matrix(1,0,0,1,-720.138,-286.943)">
        <g transform="matrix(6.32357,0,0,6.32357,-3748.27,-2200.2)">
            <path d="M709.676,397.368L710.156,397.356C710.38,397.356 710.492,397.476 710.492,397.716C710.492,398.036 710.38,398.282 710.156,398.454C709.932,398.626 709.652,398.724 709.316,398.748C709.196,398.748 709.086,398.778 708.986,398.838C708.886,398.898 708.832,398.964 708.824,399.036C708.768,399.62 708.74,400.3 708.74,401.076C708.74,401.852 708.78,402.616 708.86,403.368C708.884,403.448 708.896,403.538 708.896,403.638C708.896,403.738 708.872,403.836 708.824,403.932C708.672,404.204 708.448,404.424 708.152,404.592C707.752,404.808 707.398,404.916 707.09,404.916C706.782,404.916 706.628,404.804 706.628,404.58L706.676,404.34C706.988,403.06 707.144,401.36 707.144,399.24L707.144,399.096C707.144,399.048 707.124,399.024 707.084,399.024C706.78,399.024 706.628,398.888 706.628,398.616C706.628,398.456 706.696,398.23 706.832,397.938C706.968,397.646 707.112,397.48 707.264,397.44C707.272,397.336 707.276,397.208 707.276,397.056C707.276,396.32 707.156,395.856 706.916,395.664C706.836,395.568 706.796,395.448 706.796,395.304C706.796,395.048 706.964,394.82 707.3,394.62C707.94,394.276 710.428,393.313 711.284,393.313C711.492,393.313 711.662,393.321 711.794,393.337C711.926,393.353 712.056,393.407 712.184,393.499C712.312,393.591 712.376,393.725 712.376,393.901C712.376,394.197 712.16,394.409 711.728,394.537C711.296,394.665 709.264,395.632 709.112,395.856C708.96,396.08 708.884,396.392 708.884,396.792C708.884,396.88 708.892,397.012 708.908,397.188C708.916,397.308 709.172,397.368 709.676,397.368Z" style="fill:white;fill-rule:nonzero;"/>
        </g>
        <g transform="matrix(6.32357,0,0,6.32357,-3814.36,-2195.95)">
            <path d="M723.236,394.32L723.236,393.72C723.236,393.608 723.288,393.524 723.392,393.468C723.496,393.412 723.604,393.384 723.716,393.384C723.828,393.384 723.91,393.408 723.962,393.456C724.014,393.504 724.048,393.572 724.064,393.66L724.064,394.164L724.232,394.164C724.992,394.164 725.372,394.504 725.372,395.184C725.372,395.632 725.256,395.856 725.024,395.856C724.944,395.856 724.836,395.826 724.7,395.766C724.564,395.706 724.416,395.676 724.256,395.676C724.096,395.676 723.96,395.744 723.848,395.88C723.736,396.016 723.68,396.196 723.68,396.42C723.68,396.644 723.79,396.906 724.01,397.206C724.23,397.506 724.47,397.786 724.73,398.046C724.99,398.306 725.23,398.666 725.45,399.126C725.67,399.586 725.78,400.06 725.78,400.548C725.78,401.036 725.722,401.448 725.606,401.784C725.49,402.12 725.332,402.384 725.132,402.576C724.78,402.92 724.392,403.148 723.968,403.26L723.968,403.908C723.96,404.02 723.898,404.104 723.782,404.16C723.666,404.216 723.544,404.244 723.416,404.244C723.232,404.244 723.14,404.156 723.14,403.98L723.14,403.344C722.5,403.304 721.998,403.088 721.634,402.696C721.27,402.304 721.088,401.788 721.088,401.148C721.088,400.804 721.176,400.464 721.352,400.128C721.528,399.792 721.76,399.624 722.048,399.624C722.152,399.624 722.232,399.66 722.288,399.732C722.344,399.804 722.38,399.928 722.396,400.104C722.412,400.28 722.448,400.45 722.504,400.614C722.56,400.778 722.62,400.898 722.684,400.974C722.748,401.05 722.82,401.112 722.9,401.16C723.012,401.216 723.108,401.244 723.188,401.244C723.38,401.244 723.536,401.166 723.656,401.01C723.776,400.854 723.836,400.658 723.836,400.422C723.836,400.186 723.72,399.892 723.488,399.54C723.256,399.188 723.004,398.86 722.732,398.556C722.46,398.252 722.208,397.906 721.976,397.518C721.744,397.13 721.628,396.734 721.628,396.33C721.628,395.926 721.77,395.532 722.054,395.148C722.338,394.764 722.732,394.488 723.236,394.32Z" style="fill:white;fill-rule:nonzero;"/>
        </g>
    </g>
</svg>
